#!OML:ASF H:\Not Pregnant\Project 1\Capture day 1\Session 1\non-pregnant.ASF
:FULLY-SPECIFIED
:DEGREES
1933
root 6.82151 5.77781 18.298 59.9421 -0.863919 -41.7906
lowerback 22.3879 16.1366 -16.7271
upperback 8.40677 16.5094 1.30329
thorax -7.42556 7.54509 5.11477
lowerneck 17.7636 -2.81769 -39.283
upperneck 30.8995 -12.16 28.7866
head 12.1213 -9.29278 20.5508
rclavicle -1.24042e-013 6.22196e-014
rhumerus 41.6685 18.346 -97.5126
rradius 109.287
rwrist 29.1985
rhand 12.8131 -4.0975
rfingers 7.12502
rthumb 37.7893 -29.9537
lclavicle -1.24042e-013 6.22196e-014
lhumerus 54.9342 -7.05935 46.0548
lradius 100.256
lwrist -16.3424
lhand -18.9504 -6.77497
lfingers 7.12502
lthumb 7.35304 23.0773
rfemur -155.759 36.2742 57.6451
rtibia 124.679
rfoot 2.5615 16.8539
rtoes 46.8746
lfemur 24.8048 10.537 -5.34703
ltibia 1.11319e-014
lfoot 59.0077 4.65107
ltoes 25.0401
1934
root 6.82198 5.77707 18.298 59.9421 -0.871413 -41.7981
lowerback 22.378 16.1317 -16.729
upperback 8.41197 16.5059 1.30929
thorax -7.41637 7.54321 5.1264
lowerneck 17.8205 -2.80861 -39.2992
upperneck 30.828 -12.1652 28.7715
head 12.0757 -9.28953 20.5219
rclavicle 5.88403e-014 -2.26615e-014
rhumerus 41.6693 18.3728 -97.5004
rradius 109.286
rwrist 29.1263
rhand 12.8798 -4.12812
rfingers 7.12502
rthumb 37.8523 -29.9674
lclavicle 5.88403e-014 -2.26615e-014
lhumerus 54.9035 -7.04686 46.0689
lradius 100.266
lwrist -16.3493
lhand -18.9554 -6.78573
lfingers 7.12502
lthumb 7.34818 23.0667
rfemur -155.76 36.2768 57.6394
rtibia 124.683
rfoot 2.56167 16.8583
rtoes 46.8763
lfemur 24.8104 10.5504 -5.35026
ltibia -5.40694e-014
lfoot 59.0117 4.61592
ltoes 25.0242
1935
root 6.82246 5.77644 18.2982 59.9439 -0.876661 -41.8086
lowerback 22.3661 16.1266 -16.7283
upperback 8.41702 16.5034 1.31588
thorax -7.40614 7.5418 5.13735
lowerneck 17.9093 -2.79995 -39.3099
upperneck 30.7308 -12.1769 28.7387
head 12.0111 -9.28568 20.4696
rclavicle -1.84472e-013 1.31993e-013
rhumerus 41.6738 18.3966 -97.4866
rradius 109.29
rwrist 29.0152
rhand 13.0026 -4.17035
rfingers 7.12502
rthumb 37.9684 -29.9782
lclavicle -1.84472e-013 1.31993e-013
lhumerus 54.8745 -7.0353 46.0805
lradius 100.271
lwrist -16.3673
lhand -18.9729 -6.79847
lfingers 7.12502
lthumb 7.33128 23.0545
rfemur -155.758 36.2803 57.6412
rtibia 124.686
rfoot 2.5657 16.8645
rtoes 46.8849
lfemur 24.8144 10.5655 -5.34979
ltibia 3.65764e-014
lfoot 59.0166 4.57221
ltoes 24.9748
1936
root 6.82293 5.77585 18.2984 59.9506 -0.875421 -41.8227
lowerback 22.3482 16.1197 -16.7223
upperback 8.42157 16.5013 1.32439
thorax -7.39315 7.54073 5.14889
lowerneck 17.9961 -2.7846 -39.3282
upperneck 30.6246 -12.1833 28.7262
head 11.9435 -9.28059 20.4341
rclavicle -6.99722e-014 -1.98785e-016
rhumerus 41.6805 18.4196 -97.473
rradius 109.292
rwrist 28.908
rhand 13.1375 -4.20384
rfingers 7.12502
rthumb 38.0957 -29.977
lclavicle -6.99722e-014 -1.98785e-016
lhumerus 54.8466 -7.02371 46.0916
lradius 100.273
lwrist -16.3902
lhand -18.9961 -6.80847
lfingers 7.12502
lthumb 7.30888 23.0453
rfemur -155.757 36.287 57.6486
rtibia 124.686
rfoot 2.57086 16.8713
rtoes 46.8986
lfemur 24.8135 10.5812 -5.34175
ltibia -6.04305e-014
lfoot 59.0213 4.53063
ltoes 24.8786
1937
root 6.82339 5.7753 18.2986 59.9559 -0.866725 -41.8392
lowerback 22.3337 16.1107 -16.7105
upperback 8.42585 16.4975 1.33506
thorax -7.38106 7.53896 5.16006
lowerneck 18.0477 -2.76894 -39.3515
upperneck 30.5505 -12.181 28.7233
head 11.8967 -9.27493 20.4171
rclavicle -1.31993e-013 6.20208e-014
rhumerus 41.683 18.4464 -97.466
rradius 109.303
rwrist 28.8077
rhand 13.2726 -4.23124
rfingers 7.12502
rthumb 38.2232 -29.9694
lclavicle -1.31993e-013 6.20208e-014
lhumerus 54.8157 -7.00895 46.1018
lradius 100.275
lwrist -16.4087
lhand -19.0202 -6.81884
lfingers 7.12502
lthumb 7.28561 23.0357
rfemur -155.754 36.2924 57.6632
rtibia 124.687
rfoot 2.57305 16.8762
rtoes 46.9096
lfemur 24.8141 10.5946 -5.32464
ltibia 1.11319e-014
lfoot 59.0235 4.50622
ltoes 24.8122
1938
root 6.82388 5.77476 18.2989 59.9588 -0.862298 -41.8492
lowerback 22.3237 16.1033 -16.7041
upperback 8.43374 16.4933 1.34558
thorax -7.36806 7.53655 5.17334
lowerneck 18.0089 -2.76889 -39.3734
upperneck 30.5591 -12.1717 28.7186
head 11.9064 -9.2715 20.4219
rclavicle 1.27222e-013 -8.26944e-014
rhumerus 41.6869 18.4698 -97.4585
rradius 109.326
rwrist 28.7009
rhand 13.423 -4.25464
rfingers 7.12502
rthumb 38.3652 -29.9536
lclavicle 1.27222e-013 -8.26944e-014
lhumerus 54.7896 -6.99541 46.1176
lradius 100.277
lwrist -16.4295
lhand -19.0418 -6.82943
lfingers 7.12502
lthumb 7.26481 23.0259
rfemur -155.754 36.2936 57.6718
rtibia 124.689
rfoot 2.57682 16.8782
rtoes 46.9152
lfemur 24.8155 10.6044 -5.31533
ltibia -5.56597e-014
lfoot 59.024 4.50716
ltoes 24.7807
1939
root 6.82446 5.77419 18.2991 59.9562 -0.855566 -41.8542
lowerback 22.3198 16.0972 -16.6967
upperback 8.44588 16.49 1.35951
thorax -7.35412 7.53418 5.18874
lowerneck 17.8853 -2.78283 -39.3941
upperneck 30.6494 -12.1553 28.7158
head 11.9713 -9.27086 20.4513
rclavicle -1.43125e-014 -6.83819e-014
rhumerus 41.6917 18.4894 -97.4452
rradius 109.352
rwrist 28.6235
rhand 13.5399 -4.25899
rfingers 7.12502
rthumb 38.4755 -29.9272
lclavicle -1.43125e-014 -6.83819e-014
lhumerus 54.7678 -6.98653 46.1457
lradius 100.28
lwrist -16.4528
lhand -19.0564 -6.84464
lfingers 7.12502
lthumb 7.25075 23.0111
rfemur -155.755 36.2872 57.6813
rtibia 124.693
rfoot 2.5788 16.8789
rtoes 46.9155
lfemur 24.8204 10.6079 -5.30655
ltibia 9.54166e-015
lfoot 59.0247 4.52097
ltoes 24.8138
